<svg
  color="white"
  viewBox="0 0 312.66 382.12"
  xmlns="http://www.w3.org/2000/svg"
>
  <g>
    <g>
      <g>
        <path
          d="M308.66,155.11V227c0,43.48-68.2,78.72-152.33,78.72S4,270.49,4,227v-71.9c0,13,6.06,25.19,16.8,36,25.27,25.39,76.48,42.75,135.53,42.75s110.27-17.37,135.55-42.75C302.61,180.28,308.66,168.07,308.66,155.11Z"
          style="
            fill: none;
            stroke: currentColor;
            stroke-miterlimit: 10;
            stroke-width: 8px;
          "
        />
        <path
          d="M140.66,258.56v24.89c-51.78-2.72-95.89-18.86-119.11-41.58V217C39,234.05,94.63,256.12,140.66,258.56Z"
          style="
            fill: currentColor;
            stroke: currentColor;
            stroke-linejoin: round;
            stroke-width: 4.5px;
          "
        />
        <path
          d="M206.89,254.53v24.89a269,269,0,0,1-27.11,3.52V258A267.85,267.85,0,0,0,206.89,254.53Z"
          style="
            fill: currentColor;
            stroke: currentColor;
            stroke-linejoin: round;
            stroke-width: 4.5px;
          "
        />
      </g>
      <g>
        <g>
          <path
            d="M230.38,85.82c26.25,7.56,47.72,19,61.5,32.85-25.28,25.38-76.49,42.75-135.55,42.75S46.07,144.06,20.8,118.67C34.56,104.83,56,93.38,82.26,85.82"
            style="
              fill: none;
              stroke: currentColor;
              stroke-linecap: round;
              stroke-miterlimit: 10;
              stroke-width: 6px;
            "
          />
          <path
            d="M308.66,82.71c0,13-6.05,25.18-16.78,36-25.28,25.38-76.49,42.75-135.55,42.75S46.07,144.06,20.8,118.67C10.06,107.9,4,95.67,4,82.71,4,39.25,72.2,4,156.33,4S308.66,39.25,308.66,82.71Z"
            style="
              fill: none;
              stroke: currentColor;
              stroke-miterlimit: 10;
              stroke-width: 8px;
            "
          />
          <path
            d="M308.66,82.71v71.91c0,43.48-68.2,78.71-152.33,78.71S4,198.1,4,154.62V82.71c0,13,6.06,25.19,16.8,36,25.27,25.39,76.48,42.75,135.53,42.75s110.27-17.37,135.55-42.75C302.61,107.89,308.66,95.67,308.66,82.71Z"
            style="
              fill: none;
              stroke: currentColor;
              stroke-miterlimit: 10;
              stroke-width: 8px;
            "
          />
        </g>
        <path
          d="M140.66,185.23v24.89c-51.78-2.72-95.89-18.86-119.11-41.58V143.63C44.76,166.36,88.87,182.49,140.66,185.23Z"
          style="
            fill: currentColor;
            stroke: currentColor;
            stroke-linejoin: round;
            stroke-width: 4.5px;
          "
        />
        <path
          d="M206.89,181.2v24.89a269,269,0,0,1-27.11,3.52v-24.9A271.9,271.9,0,0,0,206.89,181.2Z"
          style="
            fill: currentColor;
            stroke: currentColor;
            stroke-linejoin: round;
            stroke-width: 4.5px;
          "
        />
      </g>
      <g>
        <path
          d="M308.66,227.5v71.91c0,43.48-68.2,78.71-152.33,78.71S4,342.89,4,299.41V227.5c0,13,6.06,25.19,16.8,36,25.27,25.4,76.48,42.76,135.53,42.76s110.27-17.38,135.55-42.76C302.61,252.68,308.66,240.46,308.66,227.5Z"
          style="
            fill: none;
            stroke: currentColor;
            stroke-miterlimit: 10;
            stroke-width: 8px;
          "
        />
        <path
          d="M140.66,330.11V355c-51.78-2.72-95.89-18.86-119.11-41.58V288.51C44.76,311.24,88.87,327.37,140.66,330.11Z"
          style="
            fill: currentColor;
            stroke: currentColor;
            stroke-linejoin: round;
            stroke-width: 4.5px;
          "
        />
        <path
          d="M206.89,326.08V351a269,269,0,0,1-27.11,3.52v-24.9A271.9,271.9,0,0,0,206.89,326.08Z"
          style="
            fill: currentColor;
            stroke: currentColor;
            stroke-linejoin: round;
            stroke-width: 4.5px;
          "
        />
      </g>
    </g>
    <g>
      <path
        d="M151,109.4s11.33-41-59.3-37.67c11.11,8.3-4.57,67.17,56.35,49.52,0,0-9.86-20.52-28.5-32.13A146.8,146.8,0,0,1,151,109.4Z"
        style="fill: currentColor"
      />
      <path
        d="M159.54,109.58S141.07,65.06,221,58.94c-11.34,10.89,14.51,74.9-56.45,63.56,0,0,8.22-24.44,27.56-40.11A166.76,166.76,0,0,0,159.54,109.58Z"
        style="fill: currentColor"
      />
    </g>
  </g>
</svg>